<?xml version="1.0" encoding="UTF-8"?>
<svg width="600" height="160" version="1.1" xmlns="http://www.w3.org/2000/svg">
 <path d="m444.26 139.3-10.968-15.959h-6.5287v25.838h5.5909v-17.92l12.627 17.918h4.7496v-25.836h-5.4713zm-104.29 0-10.966-15.959h-6.5287v25.838h5.5909v-17.92l12.627 17.918h4.7496v-25.836h-5.4734zm-212.75-15.965h-5.7399v25.838h18.875v-5.2196h-13.135zm26.35 21c-4.0825 0-6.3398-3.4552-6.3398-8.0622 0-4.5399 2.2573-8.0622 6.3398-8.0622 4.1161 0 6.3734 3.5559 6.3734 8.0622 0 4.5399-2.2573 8.0622-6.3734 8.0622m-4e-3 -21.417c-7.1958 0-12.199 5.3853-12.199 13.355s4.9301 13.355 12.199 13.355c7.1958 0 12.199-5.4231 12.199-13.355 0-7.9699-5.0035-13.355-12.199-13.355m83.605 21.417c-4.0825 0-6.3399-3.4552-6.3399-8.0622 0-4.5399 2.2573-8.0622 6.3399-8.0622 4.1161 0 6.3734 3.5559 6.3734 8.0622 0 4.5399-2.2573 8.0622-6.3734 8.0622m-4e-3 -21.417c-7.1958 0-12.199 5.3853-12.199 13.355s4.9301 13.355 12.199 13.355c7.1958 0 12.199-5.4231 12.199-13.355 0-7.9699-5.0035-13.355-12.199-13.355m-29.136 21.292h-3.4615v-15.906h3.4615c3.8538 0 7.7727 1.8168 7.7727 7.9531 0 4.7769-2.6706 7.9531-7.7727 7.9531m0.22868-20.872h-9.4343v25.838h9.4343c8.1524 0 13.391-4.8399 13.391-12.919 0-8.2238-5.2741-12.919-13.391-12.919m94.932 14.767h11.629v-4.8818h-11.629v-5.079h14.054v-4.7979h-19.794v25.838h21.143v-5.0035h-15.403zm104.43 1.4895 3.6126-9.4678 3.5811 9.4678zm0.66084-16.252-10.022 25.838h5.7168l1.8-4.7476h10.808l1.8734 4.7476h6.0168l-10.07-25.838zm-45.829 16.064h5.2301v4.3741c-1.0007 0.51608-2.6119 0.98181-4.8357 0.98181v2e-3c-4.5273 0-7.2357-3.4699-7.2357-8.5657 0-4.8776 2.4587-8.4 6.493-8.4294 3.3042 8e-3 4.6909 1.8462 5.0161 2.4441l5.1923-1.8336c-1.2084-2.4566-4.3217-5.5049-10.265-5.5049h-0.0126c-7.3259 0-12.392 5.5678-12.392 13.32 0 8.0056 5.142 13.466 13.204 13.466 5.2783 0 8.8406-1.8965 10.332-3.279v-11.629h-10.727zm102.36 4.8042h-3.4615v-15.906h3.4615c3.8538 0 7.7727 1.8168 7.7727 7.9531 0 4.7769-2.6706 7.9531-7.7727 7.9531m0.22867-20.872h-9.4322v25.838h9.4322c8.1524 0 13.393-4.8399 13.393-12.919 0-8.2238-5.2762-12.919-13.393-12.919m-80.725-2e-3h-5.7398v25.838h18.076v-5.2196h-12.336zm183.71-112.99-17.264 25.882-17.19-25.882h-21.94l29.864 44.603v30.673h18.531v-30.673l29.939-44.603zm-83.119 31.531h-18.015v-16.957h18.441l-0.0734 0.02727c5.614 0.3 9.1888 3.5538 9.1888 8.4629 0 4.8629-3.8287 8.2657-9.5412 8.4671m26.658-8.4965c0-12.699-10.33-23.029-23.029-23.029h-38.469v75.273h17.11v-29.22c0.5056 0 7.7874 0 13.615 0.0021l16.653 29.22h19.062l-17.987-31.557c7.9489-3.8119 13.045-11.843 13.045-20.689m-241.57 38.182h-19.204v-17.589h19.204c6.342 0 9.1972 5.0475 9.1972 8.6329 0 4.4517-3.1594 8.9559-9.1972 8.9559m-19.204-47.19h14.058c4.2818 0 7.8965 3.5622 7.8965 7.779 0 4.3636-3.4678 7.7811-7.8965 7.7811h-14.058zm30.447 19.544c5.3706-3.342 8.5846-9.128 8.5846-15.432 0-9.9608-8.0643-18.073-18.004-18.157-1.9532 0 0.10279 0-38.276 0.0042v75.273l41.555 0.0042c11.708-0.03776 21.22-9.5748 21.22-21.292 0-8.3161-4.9426-16.943-15.08-20.4m-134.85 11.912v-45.424h-17.57v44.247c0 10.718-5.5762 16.863-15.304 16.863h-6e-3c-9.7259 0-15.304-6.1447-15.304-16.863v-44.247h-17.57v45.424c0 19.819 12.289 31.653 32.874 31.653h6e-3c20.587 0 32.874-11.834 32.874-31.653m29.539-30.902h18.441l-0.0734 0.02727c5.614 0.3 9.1909 3.5538 9.1909 8.4629 0 4.8629-3.8308 8.2657-9.5434 8.4671h-18.015zm0.28531 31.485c0.50559 0 7.7895 0 13.615 0.0021l16.651 29.22h19.062l-17.985-31.555c7.9489-3.814 13.045-11.845 13.045-20.692 0-12.699-10.33-23.029-23.029-23.029h-38.469v75.275h17.11zm187.69 14.102h-40.584v-16.053h33.908v-14.685h-33.908v-15.061h38.675v-14.364h-56.245v75.277h58.154zm28.531-45.587h18.441l-0.0734 0.02727c5.614 0.3 9.1888 3.5538 9.1888 8.4629 0 4.8629-3.8287 8.2657-9.5412 8.4671h-18.015zm0.28531 31.485c0.50559 0 7.7874 0 13.615 0.0021l16.651 29.22h19.062l-17.985-31.555c7.9489-3.814 13.045-11.845 13.045-20.692 0-12.699-10.33-23.029-23.029-23.029h-38.471v75.273h17.113zm-205.27 82.892-10.966-15.959h-6.5287v25.838h5.5909v-17.92l12.627 17.918h4.7496v-25.836h-5.4734zm83.622 0-10.966-15.959h-6.5287v25.838h5.5909v-17.92l12.627 17.918h4.7496v-25.836h-5.4734zm-224.66-67.72h-19.204v-17.589h19.204c6.342 0 9.1972 5.0475 9.1972 8.6329 0 4.4517-3.1594 8.9559-9.1972 8.9559m-19.204-47.19h14.06c4.2797 0 7.8944 3.5622 7.8944 7.779 0 4.3636-3.4678 7.7811-7.8944 7.7811h-14.06zm30.447 19.544c5.3706-3.342 8.5846-9.1259 8.5846-15.432 0-9.9608-8.0643-18.073-18.004-18.157-1.9531 0 0.1028 0-38.276 0.0042v75.273l41.555 0.0042c11.708-0.03776 21.22-9.5748 21.22-21.292 0-8.3161-4.9427-16.943-15.08-20.4"/>
</svg>
